<!DOCTYPE svg PUBLIC "-//W3C//DTD SVG 20010904//EN" "http://www.w3.org/TR/2001/REC-SVG-20010904/DTD/svg10.dtd">
<svg version="1.0" xmlns="http://www.w3.org/2000/svg" width="430px" height="110px" viewBox="0 0 4300 1100" preserveAspectRatio="xMidYMid meet">
<g id="layer101" fill="#314460" stroke="none">
 <path d="M320 980 c0 -11 5 -20 10 -20 6 0 10 -6 10 -14 0 -10 -19 -17 -67 -22 -38 -4 -72 -7 -77 -6 -23 7 -46 -11 -46 -35 0 -24 2 -25 43 -19 87 14 246 25 370 26 142 0 156 8 90 53 -36 24 -43 25 -130 20 -51 -3 -93 -10 -93 -14 0 -5 -19 -9 -41 -9 -36 0 -40 2 -29 15 9 11 35 15 101 15 49 0 89 4 89 9 0 15 -40 21 -137 21 -86 0 -93 -1 -93 -20z"/>
 <path d="M515 873 c-120 -14 -192 -26 -201 -34 -6 -5 -60 -14 -120 -20 -60 -6 -115 -13 -121 -15 -19 -5 -16 -41 3 -52 18 -10 54 -5 54 8 0 4 42 11 93 15 50 4 97 11 102 15 16 14 195 30 325 30 66 0 120 3 120 8 0 4 -7 18 -16 30 -14 20 -22 22 -112 21 -53 -1 -110 -4 -127 -6z"/>
 <path d="M4193 833 c-3 -10 -8 -22 -11 -27 -3 -5 2 -7 10 -3 9 3 26 -1 37 -10 26 -18 26 -18 34 25 6 28 4 32 -14 32 -16 0 -19 -5 -15 -22 l6 -23 -11 23 c-14 26 -27 28 -36 5z"/>
 <path d="M930 600 l0 -220 40 0 40 0 0 220 0 220 -40 0 -40 0 0 -220z"/>
 <path d="M1070 660 l0 -160 35 0 c29 0 35 4 35 21 l0 20 26 -20 c35 -28 88 -36 135 -22 59 18 69 46 69 196 l0 125 -35 0 -35 0 0 -110 c0 -104 -1 -112 -25 -135 -27 -28 -46 -31 -78 -13 -41 21 -46 39 -47 151 l0 107 -40 0 -40 0 0 -160z"/>
 <path d="M1457 802 c-14 -15 -17 -41 -17 -135 l0 -117 -25 0 c-20 0 -25 -5 -25 -25 0 -20 5 -25 24 -25 20 0 26 -7 33 -37 7 -31 14 -39 36 -41 25 -3 27 -1 27 37 0 40 1 41 35 41 31 0 35 3 35 25 0 22 -4 25 -35 25 l-35 0 0 100 c0 105 8 124 51 113 16 -4 19 0 19 26 0 31 0 31 -53 31 -40 0 -58 -5 -70 -18z"/>
 <path d="M1652 800 c-42 -26 -62 -73 -62 -147 0 -100 47 -151 147 -160 97 -7 153 37 169 135 l7 42 -122 0 c-119 0 -121 0 -121 23 0 74 109 102 155 40 10 -13 75 -8 75 6 0 16 -33 52 -60 66 -44 23 -147 20 -188 -5z m178 -195 c0 -51 -94 -74 -137 -33 -42 39 -31 48 57 48 64 0 80 -3 80 -15z"/>
 <path d="M1950 595 l0 -225 35 0 35 0 0 225 0 225 -35 0 -35 0 0 -225z"/>
 <path d="M2080 660 l0 -160 35 0 35 0 0 160 0 160 -35 0 -35 0 0 -160z"/>
 <path d="M2305 805 c-77 -42 -107 -102 -107 -212 1 -144 64 -213 195 -213 83 0 126 17 162 64 30 40 27 52 -14 61 -23 5 -34 0 -64 -30 -27 -27 -43 -35 -71 -35 -84 0 -129 54 -129 155 0 104 44 160 125 160 46 0 53 -3 87 -41 35 -40 37 -40 69 -27 32 13 32 14 17 43 -8 16 -32 42 -52 57 -31 24 -47 28 -112 31 -56 2 -84 -1 -106 -13z"/>
 <path d="M2672 800 c-69 -42 -91 -162 -45 -240 37 -64 147 -88 230 -51 54 25 76 67 77 147 0 110 -56 164 -169 164 -43 0 -70 -6 -93 -20z m155 -51 c38 -32 40 -142 2 -180 -22 -22 -85 -26 -110 -6 -39 30 -52 107 -26 157 23 46 94 62 134 29z"/>
 <path d="M2970 660 l0 -160 35 0 c29 0 35 4 35 20 0 20 0 20 29 -1 42 -31 117 -36 158 -10 42 26 53 69 53 204 l0 107 -40 0 -40 0 0 -113 c0 -106 -2 -115 -23 -135 -32 -30 -63 -28 -98 7 -28 29 -29 32 -29 135 l0 106 -40 0 -40 0 0 -160z"/>
 <path d="M3357 802 c-14 -15 -17 -40 -17 -135 0 -110 -1 -117 -20 -117 -15 0 -20 -7 -20 -25 0 -18 5 -25 18 -25 13 0 22 -12 31 -40 10 -33 16 -40 36 -40 22 0 25 4 25 40 0 39 1 40 35 40 31 0 35 3 35 25 0 22 -4 25 -35 25 l-35 0 0 100 c0 86 2 101 18 109 10 6 29 7 41 4 20 -5 22 -2 19 23 -3 28 -6 29 -59 32 -44 2 -59 -1 -72 -16z"/>
 <path d="M3510 660 l0 -160 35 0 c28 0 35 4 35 20 0 18 2 17 25 -5 15 -16 36 -25 55 -25 28 0 30 3 30 34 0 32 -3 35 -32 38 -54 5 -72 42 -76 158 l-4 100 -34 0 -34 0 0 -160z"/>
 <path d="M3773 804 c-56 -28 -76 -73 -71 -159 3 -66 7 -78 33 -105 68 -71 212 -64 268 14 18 25 22 45 22 101 0 80 -16 113 -68 145 -40 25 -138 27 -184 4z m156 -71 c20 -23 23 -34 19 -86 -5 -69 -29 -97 -83 -97 -70 0 -111 75 -85 155 22 67 101 82 149 28z"/>
 <path d="M4070 595 l0 -225 35 0 35 0 0 225 0 225 -35 0 -35 0 0 -225z"/>
 <path d="M555 803 c-22 -3 -42 -8 -45 -12 -5 -8 -193 -41 -235 -41 -14 0 -25 -4 -25 -9 0 -5 -42 -12 -93 -16 -119 -8 -127 -11 -127 -41 0 -21 5 -24 35 -24 19 0 35 5 35 10 0 6 29 10 68 10 37 0 72 4 77 8 6 5 72 17 148 27 75 10 137 22 137 27 0 4 63 8 140 8 147 0 150 1 134 44 -5 13 -23 16 -108 14 -55 -1 -119 -3 -141 -5z"/>
 <path d="M800 740 c-8 -5 -39 -10 -69 -10 -67 0 -262 -29 -276 -40 -14 -12 -175 -40 -226 -40 -21 0 -41 -4 -44 -10 -8 -14 -125 -13 -125 1 0 6 -10 9 -23 7 -25 -3 -35 -41 -17 -63 10 -12 9 -16 -4 -21 -16 -6 -23 -49 -8 -57 12 -8 365 13 376 22 6 4 52 16 101 26 50 10 95 22 101 26 6 5 53 11 105 14 80 4 87 3 49 -6 -140 -32 -216 -52 -220 -59 -7 -11 -150 -40 -194 -40 -19 0 -36 -4 -38 -9 -5 -15 -201 -16 -206 -2 -6 17 -49 13 -56 -5 -12 -30 -6 -53 16 -60 14 -4 25 -1 33 10 10 13 33 16 135 16 118 0 329 24 340 39 12 17 94 33 198 38 l113 6 -3 66 -3 66 -105 -2 c-58 -1 -114 -7 -125 -12 -11 -5 -56 -17 -100 -26 -44 -10 -84 -21 -90 -25 -26 -21 -331 -51 -369 -37 -14 5 -15 11 -6 27 9 17 21 20 89 20 89 0 313 28 321 40 9 14 156 30 272 30 l110 0 -7 28 c-9 37 -26 54 -45 42z"/>
 <path d="M710 498 c-30 -6 -57 -13 -60 -17 -3 -4 -34 -16 -70 -26 -36 -10 -67 -22 -70 -26 -14 -18 -130 -33 -280 -34 l-165 -1 0 -25 0 -24 145 3 c150 3 300 19 300 32 0 3 37 15 83 25 45 10 87 22 92 26 6 4 44 11 85 15 75 7 90 14 90 47 0 14 -8 17 -47 16 -27 -1 -73 -6 -103 -11z"/>
 <path d="M2080 400 c0 -28 3 -30 35 -30 32 0 35 2 35 30 0 28 -3 30 -35 30 -32 0 -35 -2 -35 -30z"/>
 <path d="M698 405 c-26 -7 -66 -22 -90 -34 -24 -11 -59 -24 -78 -27 -19 -4 -40 -11 -46 -15 -20 -16 -177 -32 -265 -27 -97 6 -117 0 -101 -28 9 -16 24 -18 157 -15 82 1 155 6 164 11 9 4 60 18 114 30 53 12 97 25 97 30 0 9 101 30 147 30 22 0 33 5 33 14 0 8 3 21 6 30 5 13 -2 16 -42 15 -27 0 -70 -7 -96 -14z"/>
 <path d="M726 331 c-3 -4 -33 -19 -66 -31 -33 -12 -60 -26 -60 -30 0 -11 -70 -29 -139 -36 -34 -4 -64 -11 -67 -15 -7 -13 -124 -11 -124 1 0 6 -9 10 -21 10 -16 0 -20 -5 -17 -27 l3 -28 105 3 c136 5 252 25 315 57 28 13 56 25 63 25 6 0 12 4 12 9 0 5 14 14 30 21 41 17 41 50 1 50 -17 0 -32 -4 -35 -9z"/>
 </g>
<g id="layer102" fill="#eaa735" stroke="none">
 <path d="M320 980 c0 -11 5 -20 10 -20 6 0 10 -6 10 -14 0 -10 -19 -17 -67 -22 -38 -4 -72 -7 -77 -6 -23 7 -46 -11 -46 -35 0 -24 2 -25 43 -19 87 14 246 25 370 26 142 0 156 8 90 53 -36 24 -43 25 -130 20 -51 -3 -93 -10 -93 -14 0 -5 -19 -9 -41 -9 -36 0 -40 2 -29 15 9 11 35 15 101 15 49 0 89 4 89 9 0 15 -40 21 -137 21 -86 0 -93 -1 -93 -20z"/>
 <path d="M515 873 c-120 -14 -192 -26 -201 -34 -6 -5 -60 -14 -120 -20 -60 -6 -115 -13 -121 -15 -19 -5 -16 -41 3 -52 18 -10 54 -5 54 8 0 4 42 11 93 15 50 4 97 11 102 15 16 14 195 30 325 30 66 0 120 3 120 8 0 4 -7 18 -16 30 -14 20 -22 22 -112 21 -53 -1 -110 -4 -127 -6z"/>
 <path d="M555 803 c-22 -3 -42 -8 -45 -12 -5 -8 -193 -41 -235 -41 -14 0 -25 -4 -25 -9 0 -5 -42 -12 -93 -16 -119 -8 -127 -11 -127 -41 0 -21 5 -24 35 -24 19 0 35 5 35 10 0 6 29 10 68 10 37 0 72 4 77 8 6 5 72 17 148 27 75 10 137 22 137 27 0 4 63 8 140 8 147 0 150 1 134 44 -5 13 -23 16 -108 14 -55 -1 -119 -3 -141 -5z"/>
 <path d="M800 740 c-8 -5 -39 -10 -69 -10 -67 0 -262 -29 -276 -40 -14 -12 -175 -40 -226 -40 -21 0 -41 -4 -44 -10 -8 -14 -125 -13 -125 1 0 6 -10 9 -23 7 -25 -3 -35 -41 -17 -63 10 -12 9 -16 -4 -21 -16 -6 -23 -49 -8 -57 12 -8 365 13 376 22 6 4 52 16 101 26 50 10 95 22 101 26 6 5 53 11 105 14 80 4 87 3 49 -6 -140 -32 -216 -52 -220 -59 -7 -11 -150 -40 -194 -40 -19 0 -36 -4 -38 -9 -5 -15 -201 -16 -206 -2 -6 17 -49 13 -56 -5 -12 -30 -6 -53 16 -60 14 -4 25 -1 33 10 10 13 33 16 135 16 118 0 329 24 340 39 12 17 94 33 198 38 l113 6 -3 66 -3 66 -105 -2 c-58 -1 -114 -7 -125 -12 -11 -5 -56 -17 -100 -26 -44 -10 -84 -21 -90 -25 -26 -21 -331 -51 -369 -37 -14 5 -15 11 -6 27 9 17 21 20 89 20 89 0 313 28 321 40 9 14 156 30 272 30 l110 0 -7 28 c-9 37 -26 54 -45 42z"/>
 <path d="M710 498 c-30 -6 -57 -13 -60 -17 -3 -4 -34 -16 -70 -26 -36 -10 -67 -22 -70 -26 -14 -18 -130 -33 -280 -34 l-165 -1 0 -25 0 -24 145 3 c150 3 300 19 300 32 0 3 37 15 83 25 45 10 87 22 92 26 6 4 44 11 85 15 75 7 90 14 90 47 0 14 -8 17 -47 16 -27 -1 -73 -6 -103 -11z"/>
 <path d="M698 405 c-26 -7 -66 -22 -90 -34 -24 -11 -59 -24 -78 -27 -19 -4 -40 -11 -46 -15 -20 -16 -177 -32 -265 -27 -97 6 -117 0 -101 -28 9 -16 24 -18 157 -15 82 1 155 6 164 11 9 4 60 18 114 30 53 12 97 25 97 30 0 9 101 30 147 30 22 0 33 5 33 14 0 8 3 21 6 30 5 13 -2 16 -42 15 -27 0 -70 -7 -96 -14z"/>
 <path d="M726 331 c-3 -4 -33 -19 -66 -31 -33 -12 -60 -26 -60 -30 0 -11 -70 -29 -139 -36 -34 -4 -64 -11 -67 -15 -7 -13 -124 -11 -124 1 0 6 -9 10 -21 10 -16 0 -20 -5 -17 -27 l3 -28 105 3 c136 5 252 25 315 57 28 13 56 25 63 25 6 0 12 4 12 9 0 5 14 14 30 21 41 17 41 50 1 50 -17 0 -32 -4 -35 -9z"/>
 </g>

</svg>